<svg version="1.2" xmlns="http://www.w3.org/2000/svg" viewBox="0 0 1000 1000" width="1300" height="500">
	<title>2676384-ai</title>
	<style>
		.s0 { fill: #cce1f7 } 
		.s1 { fill: #3b73ab } 
		.s2 { fill: #00528a } 
		.s3 { fill: #01305a } 
		.s4 { fill: #ffffff } 
		.s5 { fill: #ff7c78 } 
		.s6 { fill: #ffc0ad } 
		.s7 { fill: #fda084 } 
		.s8 { fill: #d84e5a } 
		.s9 { fill: #ff7972 } 
	</style>
	<g id="BACKGROUND">
		<g id="&lt;Group&gt;">
		</g>
	</g>
	<g id="OBJECTS">
		<g id="&lt;Group&gt;">
			<g id="&lt;Group&gt;">
				<path id="&lt;Path&gt;" class="s0" d="m621.5 414.6c170.3-35.3 280 4.3 266.1 130.6-13.9 126.3-261.3 267.6-499 190.2-237.8-77.3-291.7-382.6-177.7-506.4q1.7-1.9 3.4-3.7c79.5-83.4 218.2-47.4 248.9 64.2 19.2 69.5 62.1 145 158.3 125.1z"/>
				<path id="&lt;Path&gt;" class="s0" d="m794.4 329.9c25.2 36.1-8.2 63.9-71.1 53.5-16.5-2.7-28.1-8.2-36.2-14.8-24.6-20-15.8-48.2 16-53.4 31.6-5.1 75.7-7.6 91.3 14.7z"/>
				<path id="&lt;Path&gt;" class="s0" d="m155.6 590.7c-19.6 39.5-60 23.5-81-36.8-5.5-15.8-6.2-28.6-4.3-38.9 5.8-31.1 34.8-36.9 54.6-11.4 19.6 25.2 42.8 62.8 30.7 87.1z"/>
				<path id="&lt;Compound Path&gt;" fill-rule="evenodd" class="s0" d="m542 255.7c-1.5 3.1-3.4 6.1-5.7 8.7l8.7 13-14.2 9.6-8.4-12.4c-3.5 1.5-7.2 2.4-10.9 2.8l-3.4 17.3-16.8-3.3 3.1-15.9c-4.6-1.6-8.8-4.1-12.6-7.3l-13 8.7-9.5-14.2 12.4-8.4c-1.8-4.2-2.8-8.6-3-13l-14.3-2.8 3.3-16.9 13.8 2.7c1.9-4.7 4.8-9 8.6-12.7l-8.4-12.5 14.3-9.6 8.7 13c3.4-1.1 6.8-1.8 10.3-1.9l3.2-16.3 16.8 3.3-3.1 15.8c4.7 1.9 9.1 4.8 12.8 8.6l12.5-8.4 9.5 14.3-13 8.7c1.4 4 2.1 8.2 2.1 12.3l15.8 3.1-3.3 16.9zm-21.8-25.4c-4.8-7.2-14.6-9.1-21.8-4.3-7.2 4.8-9.1 14.6-4.3 21.9 4.9 7.2 14.7 9.1 21.9 4.2 7.2-4.8 9.1-14.6 4.2-21.8z"/>
				<path id="&lt;Compound Path&gt;" fill-rule="evenodd" class="s0" d="m454.2 179.7q-1.2 2.6-3.2 4.8l4.8 7.1-7.8 5.2-4.5-6.8q-3 1.2-6 1.6l-1.9 9.4-9.2-1.8 1.7-8.7c-2.4-0.9-4.8-2.2-6.8-4l-7.1 4.8-5.3-7.8 6.8-4.6c-0.9-2.3-1.5-4.7-1.6-7.1l-7.8-1.5 1.8-9.2 7.5 1.5c1.1-2.6 2.7-5 4.7-7l-4.5-6.8 7.7-5.3 4.8 7.1q2.8-0.9 5.6-1.1l1.8-8.8 9.2 1.8-1.7 8.6c2.6 1 4.9 2.6 7 4.7l6.8-4.6 5.2 7.8-7.1 4.8c0.8 2.2 1.1 4.5 1.1 6.7l8.7 1.7-1.8 9.2zm-11.9-13.9c-2.7-3.9-8-4.9-12-2.3-3.9 2.7-5 8-2.3 11.9 2.6 4 8 5 11.9 2.4 4-2.7 5-8 2.4-12z"/>
				<path id="&lt;Compound Path&gt;" fill-rule="evenodd" class="s0" d="m917.3 226.7q-1.2 2.6-3.1 4.8l4.7 7.1-7.7 5.3-4.6-6.9q-2.9 1.3-6 1.6l-1.8 9.4-9.2-1.8 1.7-8.7c-2.5-0.8-4.8-2.2-6.9-3.9l-7.1 4.7-5.2-7.8 6.8-4.5c-1-2.3-1.5-4.7-1.7-7.1l-7.8-1.6 1.8-9.2 7.6 1.5c1-2.6 2.6-5 4.7-7l-4.6-6.8 7.8-5.2 4.8 7.1q2.7-0.9 5.6-1.1l1.7-8.9 9.2 1.8-1.7 8.6c2.6 1.1 5 2.7 7 4.7l6.8-4.5 5.2 7.8-7.1 4.7c0.8 2.2 1.2 4.5 1.2 6.8l8.6 1.7-1.8 9.2zm-11.9-13.9c-2.6-3.9-8-5-11.9-2.3-4 2.6-5 8-2.4 11.9 2.7 3.9 8 5 12 2.3 3.9-2.6 4.9-8 2.3-11.9z"/>
				<path id="&lt;Compound Path&gt;" fill-rule="evenodd" class="s0" d="m130 341.2q-1.3 2.6-3.2 4.8l4.8 7.1-7.8 5.2-4.6-6.8q-2.9 1.2-5.9 1.6l-1.9 9.4-9.2-1.8 1.7-8.7c-2.5-0.9-4.8-2.2-6.8-4l-7.1 4.8-5.3-7.8 6.8-4.6c-1-2.3-1.5-4.7-1.6-7.1l-7.8-1.5 1.8-9.2 7.5 1.4c1.1-2.5 2.7-4.9 4.7-6.9l-4.6-6.8 7.8-5.3 4.8 7.1q2.8-0.9 5.6-1.1l1.8-8.9 9.2 1.9-1.7 8.6c2.6 1 4.9 2.6 7 4.7l6.8-4.6 5.2 7.8-7.1 4.8c0.7 2.2 1.1 4.5 1.1 6.7l8.7 1.7-1.8 9.2zm-11.9-13.9c-2.7-3.9-8-4.9-12-2.3-3.9 2.6-5 8-2.3 11.9 2.6 4 8 5 11.9 2.4 4-2.7 5-8 2.4-12z"/>
			</g>
		</g>
		<path id="&lt;Path&gt;" class="s0" d="m499.4 800.9c-152.6 0-286-6.7-358.4-16.6-7.6-1-9.9 10-2.5 12.1 49.4 14.1 119.3 15.1 164 19.9 77 8.3 189 6 196.9 32.8 7.8 26.9 8.6 55.3-69.9 51.3q-85.2-4.4-71-51.3c-79 2.3-267-16.2-287.8-48.2-20.6-31.6 17.1-38.9 18-39.1q0 0 0 0c31.8-16 203.6-28.3 410.7-28.3 229.7 0 415.9 15.1 415.9 33.7 0 18.6-186.2 33.7-415.9 33.7z"/>
		<g id="&lt;Group&gt;">
			<g id="&lt;Group&gt;">
				<path id="&lt;Path&gt;" class="s1" d="m186.2 713.5c-45-25.9-153.4-96-135-160.4 7.1-25 43.4-31.3 79.6 39.2 25.2 49.2 65.2 92.4 83.5 110.9z"/>
				<g id="&lt;Group&gt;">
					<path id="&lt;Path&gt;" class="s2" d="m200.5 708.2c-31-23.5-57.2-51.1-75.2-72-24.3-28.4-39.1-51-39.2-51.2-0.5-0.8-0.3-1.9 0.5-2.4 0.8-0.5 1.9-0.3 2.4 0.5 0.2 0.2 14.8 22.6 39 50.9 18.2 21.1 44.8 49.1 76.4 72.8z"/>
				</g>
			</g>
			<g id="&lt;Group&gt;">
				<path id="&lt;Path&gt;" class="s2" d="m194.2 685.6c-20.9-22.3-86.3-97.5-59-138.4 9.9-14.9 35.1-11.4 44 42.6 6 36.2 22.1 71.7 30.6 88.6z"/>
				<g id="&lt;Group&gt;">
					<g id="&lt;Group&gt;">
						<path id="&lt;Path&gt;" class="s3" d="m201.6 682.2c-15.9-22.5-27.7-46.8-35.2-64.6-10-23.9-15-41.8-15-42-0.2-0.6 0.2-1.3 0.8-1.5 0.7-0.1 1.3 0.2 1.5 0.9 0.1 0.1 4.9 18 14.9 41.7 7.6 17.8 19.3 42.1 35.2 64.4z"/>
					</g>
				</g>
			</g>
			<g id="&lt;Group&gt;">
				<path id="&lt;Path&gt;" class="s1" d="m810.1 429.1c16.9-19.8 53.6-65.9 75-116.8 30.8-73 67.4-69.5 76.4-45.1 23.2 62.8-79.7 140.8-122.5 170z"/>
				<g id="&lt;Group&gt;">
					<path id="&lt;Path&gt;" class="s2" d="m820.3 432c29.7-26 54.2-55.9 70.7-78.4 22.1-30 34.9-53.4 35.1-53.6 0.4-0.9 1.5-1.2 2.3-0.7 0.9 0.4 1.2 1.5 0.7 2.3-0.1 0.3-13.1 23.9-35.3 54-16.3 22.2-40.3 51.6-69.5 77.5z"/>
				</g>
			</g>
			<g id="&lt;Group&gt;">
				<path id="&lt;Path&gt;" class="s2" d="m812.8 404c7.2-17.5 20.6-54.1 23.8-90.6 4.8-54.5 29.7-59.9 40.7-45.8 30.3 38.8-29.3 118.7-48.4 142.4z"/>
				<g id="&lt;Group&gt;">
					<g id="&lt;Group&gt;">
						<g id="&lt;Group&gt;">
							<path id="&lt;Path&gt;" class="s3" d="m818.9 406.3c14.2-23.5 24.1-48.6 30.3-66.9 8.2-24.4 11.7-42.5 11.7-42.7 0.2-0.7 0.8-1.1 1.4-1 0.7 0.2 1.1 0.8 1 1.4 0 0.2-3.6 18.5-11.8 43-6.2 18.4-16.1 43.5-30.3 67.1z"/>
						</g>
					</g>
				</g>
			</g>
			<path id="&lt;Path&gt;" class="s2" d="m299 254.5l8.1 24.5c0.6-24.4 10.2-49 22.1-49.7 13.7-0.9 4.6 20.4-7 38.5-6.1 9.7-9.3 18-10.8 24.1l23.4 70.8q-3.3 0.6-6.5 1.2l-3.9-11.9c-6.5-6.6-20.2-18.1-44.2-27.3-31.8-12.1-63.6-30.7-45.3-42.6 18.3-11.9 62.9 19.9 85.4 57.5l-19.7-59.6c-4-4.1-12.7-11.4-27.9-17.2-20.1-7.7-40.1-19.4-28.6-26.9 11.6-7.5 39.8 12.6 53.9 36.4l-4.1-12.6c-20-32.3-25.1-81.2-10.4-88.3 14.6-7 17.1 21.5 13.9 51-1.3 12.7 0.4 24.1 1.6 32.1z"/>
			<path id="&lt;Path&gt;" class="s1" d="m908.9 572.3c8-28.6 20.8-54.1 31.8-42.2 11.1 12-11.8 55.6-42.2 78.2l-8.6 10.2c21.9-16.9 55.6-25.2 63.6-14 7.9 11.2-15 14.7-36.4 14.5-16.4-0.3-27.1 3.3-32.4 5.7l-40.3 48.1c34.8-26.7 88-39.7 100.6-21.9 12.6 17.8-23.8 23.3-57.8 22.9-25.7-0.4-42.7 5.2-51.1 9l-8.1 9.6q-2.8-1.7-5.6-3.5l47.9-57.2c0.8-6.2 1-15.1-1.2-26.4-4-21-4.6-44.2 7.8-38.4 10.8 5.1 10.6 31.5 2.1 54.5l16.6-19.8c4.1-7 9.9-17 13.3-29.3z"/>
			<g id="&lt;Group&gt;">
				<g id="&lt;Group&gt;">
					<g id="&lt;Group&gt;">
						<path id="&lt;Path&gt;" class="s2" d="m165.2 527.6c-14.3-6.5-28.3-14.6-31.7-22.4-7.6-17-2.8-43.6-22.6-47.5-19.8-3.9-44.5-16.2-37.3-47.1q7.1-30.9-30.2-71.5 40.9 4.7 59.2 42c18.3 37.3 26.3 29.1 55.1 34.1 28.9 5.1 46 4.5 51 52.6 3.9 37.9 48 56.9 65.8 59.8h-32.9z"/>
					</g>
				</g>
				<g id="&lt;Group&gt;">
					<g id="&lt;Group&gt;">
						<g id="&lt;Group&gt;">
							<path id="&lt;Path&gt;" class="s3" d="m117.7 434.6c-22-7.2-28.7-32.9-29-34-0.2-0.8 0.3-1.5 1-1.7 0.8-0.2 1.5 0.3 1.7 1 0.1 0.3 6.6 25.4 27.2 32.1 35.5 11.4 52.2 26.3 54.4 48 1.4 13.6 9.6 30.6 21.5 44.3q1.4 1.6 3 3.3h-3.7q-0.7-0.8-1.4-1.5c-12.4-14.3-20.7-31.4-22.1-45.8-2.1-20.5-18.3-34.6-52.6-45.7z"/>
						</g>
					</g>
				</g>
			</g>
			<g id="&lt;Group&gt;">
				<g id="&lt;Group&gt;">
					<g id="&lt;Group&gt;">
						<path id="&lt;Path&gt;" class="s1" d="m190.5 489.9c-64.1-32.6-54.1-56.1-45.7-98.8 8.5-42.8 24.2-49.4-17.8-94.9q-42.1-45.4-26.7-104.6 36.5 73.4 83.2 80.1c46.7 6.6 50.6 47.5 45.4 77.1-5.2 29.5 34.2 37.2 53.9 56.8 15.7 15.5 15.2 76.4 14.4 100.6-0.2 7.2-1.3 14.3-3.3 21.2q0 0.1 0 0.2h-69.2c-6.3-15.2-16.9-28.8-34.2-37.7z"/>
					</g>
				</g>
				<g id="&lt;Group&gt;">
					<g id="&lt;Group&gt;">
						<path id="&lt;Path&gt;" class="s2" d="m159.1 290.7c-0.9-0.6-1.2-1.9-0.5-2.8 0.6-0.9 1.9-1.2 2.8-0.5 1.4 1 33.6 24 31.7 58.5-3 53.5 7.9 83.6 35.3 97.4 19.2 9.7 38.5 30.4 51.7 55.3 4.3 8 8.6 17.8 11.8 29h-4.2c-3.2-10.4-7.2-19.6-11.2-27.1-12.6-23.8-31.7-44.4-50-53.6-29-14.6-40.5-45.9-37.5-101.3 1.8-32.1-29.6-54.6-29.9-54.9z"/>
					</g>
				</g>
			</g>
			<g id="&lt;Group&gt;">
				<g id="&lt;Group&gt;">
					<g id="&lt;Group&gt;">
						<path id="&lt;Path&gt;" class="s2" d="m627.1 369.2c-22.1-43-7.4-51.8 14-71.8 21.5-20 32.6-17.4 27.6-58.7q-5.1-41.3 26.6-67.5-9 54.4 13.8 76.4c22.9 21.9 8.9 45.8-5.6 59.8-14.4 14.1 4.1 33.8 7.1 52.2 1.4 8.4-6 22.8-14.4 36l-34.2 22.3h-33.7c5.4-15.2 7-32.6-1.2-48.7z"/>
					</g>
				</g>
				<g id="&lt;Group&gt;">
					<g id="&lt;Group&gt;">
						<g id="&lt;Group&gt;">
							<path id="&lt;Path&gt;" class="s3" d="m666.1 358.7c6.7 12.9 9.1 31.8 6.4 50.5q-0.1 1-0.3 2l-3.1 2.1q0.4-2.3 0.7-4.5c2.5-17.9 0.2-36.6-6.1-48.8-10.1-19.4-4.1-41 19.4-70 13.6-16.8 5.3-41.4 5.2-41.7-0.2-0.7 0.2-1.5 0.9-1.7 0.7-0.2 1.5 0.1 1.7 0.8 0.4 1.1 8.9 26.3-5.7 44.4-22.7 28-28.6 48.6-19.1 66.9z"/>
						</g>
					</g>
				</g>
			</g>
			<g id="&lt;Group&gt;">
				<g id="&lt;Group&gt;">
					<path id="&lt;Path&gt;" class="s1" d="m661.7 417.9c-0.5-27.5 0.4-79 14.7-93.2 19.6-19.6 59.1-27.2 53.9-56.8-5.2-29.5-1.3-70.4 45.4-77.1q46.7-6.6 83.2-80.1 15.3 59.3-26.7 104.7c-42 45.4-26.4 52.1-17.9 94.8 8.5 42.8 18.5 66.2-45.6 98.9-5 2.5-9.5 5.5-13.4 8.8z"/>
				</g>
				<g id="&lt;Group&gt;">
					<g id="&lt;Group&gt;">
						<path id="&lt;Path&gt;" class="s2" d="m679 417.9q0-0.1 0-0.2c13.2-24.9 32.6-45.5 51.8-55.2 27.3-13.9 38.2-43.9 35.2-97.5-1.9-34.5 30.4-57.5 31.7-58.5 0.9-0.6 2.2-0.4 2.9 0.5 0.6 1 0.4 2.2-0.5 2.9-0.3 0.2-31.8 22.7-30 54.9 3.1 55.4-8.5 86.6-37.5 101.3-17.8 9-36.4 28.7-49 51.8z"/>
					</g>
				</g>
			</g>
		</g>
		<g id="&lt;Group&gt;">
			<g id="&lt;Group&gt;">
				<g id="&lt;Group&gt;">
					<g id="&lt;Group&gt;">
						<rect id="&lt;Path&gt;" class="s3" x="168.2" y="309.7" width="670.6" height="415.8" rx="27"></rect>
					</g>
					<g id="&lt;Group&gt;">
						<path id="&lt;Path&gt;" class="s4" d="m809 355.1v325.1c0 9.5-7.7 17.3-17.3 17.3h-576.4c-4.1 0-7.8-1.4-10.7-3.7q-1.2-0.9-2.2-2c-2.8-3.1-4.4-7.2-4.4-11.6v-325.1c0-9.5 7.7-17.3 17.3-17.3h576.4c3.2 0 6.2 0.9 8.8 2.4 2.4 1.4 4.4 3.4 5.9 5.8 1.7 2.6 2.6 5.8 2.6 9.1z"/>
					</g>
					<g id="&lt;Group&gt;">
						<g id="&lt;Group&gt;">
							<path id="&lt;Compound Path&gt;" class="s5" d="m407.7 581.5h-23.6v30.4h-58.2v-30.4h-92.2v-38.1l75.5-109.2h61.4l-67 100.8h24.1v-27.2h56.4v27.2h23.6z"/>
						</g>
						<g id="&lt;Group&gt;">
							<path id="&lt;Compound Path&gt;" fill-rule="evenodd" class="s5" d="m416.1 523c0-58.9 33.5-92.9 80.5-92.9 47 0 80.5 34 80.5 92.9 0 59-33.5 93-80.5 93-47 0-80.5-34-80.5-93zm100.8 0c0-34.2-8.6-44.9-20.3-44.9-11.7 0-20.3 10.7-20.3 44.9 0 34.3 8.6 45 20.3 45 11.7 0 20.3-10.7 20.3-45z"/>
						</g>
						<g id="&lt;Group&gt;">
							<path id="&lt;Compound Path&gt;" class="s5" d="m764 581.5h-23.6v30.4h-58.2v-30.4h-92.2v-38.1l75.5-109.2h61.4l-67 100.8h24.1v-27.2h56.4v27.2h23.6z"/>
						</g>
					</g>
				</g>
				<g id="&lt;Group&gt;">
					<path id="&lt;Path&gt;" class="s3" d="m901.4 711.1v2.3c0 11.5-3.6 22.2-9.9 30.8-9.6 13.3-25.1 21.9-42.7 21.9h-690.6c-17.6 0-33.2-8.6-42.7-21.9-6.3-8.6-10-19.3-10-30.8v-2.3z"/>
				</g>
				<g id="&lt;Group&gt;" style="mix-blend-mode: screen">
					<path id="&lt;Path&gt;" class="s3" d="m589.2 711.1v0.5c0 4.2-2.8 7.6-6.2 7.6h-162.5c-3.4 0-6.2-3.4-6.2-7.6v-0.5z"/>
				</g>
				<g id="&lt;Group&gt;">
					<g id="&lt;Group&gt;" style="opacity: .2">
						<path id="&lt;Path&gt;" class="s3" d="m809 355.1v19.2h-611v-19.2c0-3.6 1.1-7.1 3.1-9.9 3.1-4.4 8.3-7.4 14.2-7.4h576.4c5.9 0 11.1 3 14.2 7.4 2 2.8 3.1 6.3 3.1 9.9z"/>
					</g>
					<g id="&lt;Group&gt;">
						<rect id="&lt;Path&gt;" class="s4" x="335.8" y="352.2" width="327.1" height="9.7" rx="1.5"></rect>
					</g>
					<g id="&lt;Group&gt;">
						<path id="&lt;Path&gt;" class="s3" d="m257.7 357v3.6c0 1-1.1 1.7-2 1.2l-3.1-1.8-3.1-1.8c-0.9-0.5-0.9-1.8 0-2.4l3.1-1.7 3.1-1.8c0.9-0.6 2 0.1 2 1.1z"/>
					</g>
					<g id="&lt;Group&gt;">
						<path id="&lt;Path&gt;" class="s3" d="m273.9 353.4c0-1 1.1-1.7 2-1.1l3.1 1.8 3.1 1.7c0.9 0.6 0.9 1.9 0 2.4l-3.1 1.8-3.1 1.8c-0.9 0.5-2-0.2-2-1.2v-3.6z"/>
					</g>
				</g>
				<g id="&lt;Group&gt;" style="opacity: .2">
					<path id="&lt;Path&gt;" class="s3" d="m805.9 345.2h-604.8c3.1-4.4 8.3-7.4 14.2-7.4h576.4c5.9 0 11.1 3 14.2 7.4z"/>
				</g>
				<g id="&lt;Group&gt;" style="opacity: .1">
					<path id="&lt;Path&gt;" class="s3" d="m683.9 669.7h-369.1c-7.2 0-13.1-5.8-13.1-13 0-7.3 5.9-13.1 13.1-13.1h369.1c7.2 0 13.1 5.8 13.1 13.1 0 7.2-5.9 13-13.1 13z"/>
				</g>
			</g>
		</g>
		<g id="&lt;Group&gt;">
			<g id="&lt;Group&gt;">
				<g id="&lt;Group&gt;">
					<path id="&lt;Path&gt;" class="s6" d="m734.3 607.4c-2.9 5.4-5.7 10.1-8.3 14.2-19.8 30-34.6 23.5-42.5 14.3-2.8-3.3-4.8-6.7-6.3-9.9-2.3-5.2-3.2-9.8-3.4-11.7l3.6 0.8c4.4 2 11.6 4.8 17 4q1-0.2 1.9-0.6c4.8-1.8 11.4-11.2 15.8-18.4q2.9-4.7 4.9-8.5z"/>
				</g>
				<g id="&lt;Group&gt;">
					<path id="&lt;Path&gt;" class="s7" d="m734.3 607.4c-2.9 5.4-5.7 10.1-8.3 14.2-5.7-6.2-10.7-15.3-13.9-21.5q2.9-4.7 4.9-8.5z"/>
				</g>
				<g id="&lt;Group&gt;">
					<path id="&lt;Path&gt;" class="s7" d="m698.7 620q-4 12.3-21.5 6c-2.3-5.2-3.2-9.8-3.4-11.7l3.6 0.8c4.4 2 11.6 4.8 17 4z"/>
				</g>
			</g>
			<g id="&lt;Group&gt;">
				<g id="&lt;Group&gt;">
					<path id="&lt;Path&gt;" class="s6" d="m861.3 651.3c-4 23.1-22.8 6.1-24.4-11.9-0.4-4-0.5-8.2-0.4-12.2 0-3.7 0.2-7.3 0.5-10.5q0-1 0.1-1.9 0.7-7.8 1.7-13.3l12.3-15.1q1.4 4.2 3.2 10.7c1.7 6 3.7 14 5.3 22.4q0.7 3.8 1.2 7.6c1.2 8.7 1.7 17.3 0.5 24.2z"/>
				</g>
				<g id="&lt;Group&gt;">
					<path id="&lt;Path&gt;" class="s7" d="m854.3 597.1c-3.6 6.7-9.6 15.6-17.3 19.6q0-1 0.1-1.9 0.7-7.8 1.7-13.3l12.3-15.1q1.4 4.2 3.2 10.7z"/>
				</g>
				<g id="&lt;Group&gt;">
					<path id="&lt;Path&gt;" class="s7" d="m860.8 627.1c-4.4 2.7-19 1.4-24.3 0.1 0-4.4 0.3-8.7 0.6-12.4l22.5 4.7q0.7 3.8 1.2 7.6z"/>
				</g>
			</g>
			<path id="&lt;Path&gt;" class="s1" d="m738.3 600.6l-4.1 13.8q-11-2.2-23.1-22.5 2.9-10.6 20.6-42 7 7.4 6.6 50.7z"/>
			<g id="&lt;Group&gt;">
				<path id="&lt;Path&gt;" class="s1" d="m792.5 533l37.9 16.9v133.7q-27.7 7.6-81.4 0l-17.3-133.7 39-16.1z"/>
				<g id="&lt;Group&gt;">
					<g id="&lt;Group&gt;">
						<path id="&lt;Path&gt;" class="s2" d="m762.6 606q0 0 0 0c0.1-0.7 0.9-1 1.4-0.5 6.4 6.6 15.3 12.9 27.8 16.5 0.4 0.1 0.6 0.5 0.6 0.9q0 0 0 0c-0.1 0.5-0.6 0.9-1.1 0.7-12.8-3.7-22-10.1-28.5-16.9-0.2-0.2-0.3-0.5-0.2-0.7z"/>
					</g>
					<g id="&lt;Group&gt;">
						<path id="&lt;Path&gt;" class="s2" d="m764.5 593.6c2.9 5 8.7 11.7 19.8 14.7 0.4 0.1 0.6 0.5 0.5 0.9-0.1 0.3-0.4 0.6-0.7 0.6q-0.1 0-0.2-0.1c-10.3-2.7-16.1-8.6-19.2-13q-0.9-1.2-1.5-2.3-0.1-0.2-0.1-0.4c0-0.8 1-1.1 1.4-0.4z"/>
					</g>
					<g id="&lt;Group&gt;">
						<g id="&lt;Group&gt;">
							<path id="&lt;Path&gt;" class="s2" d="m765.1 558.4c19.6-3.8 30.9-18.6 31-18.7 0.2-0.4 0.7-0.4 1.1-0.2 0.3 0.3 0.4 0.8 0.1 1.1-0.1 0.2-3.7 4.9-10.4 9.8-4.9 3.6-12.2 7.7-21.5 9.5-0.4 0.1-0.9-0.2-0.9-0.7q0 0 0 0c0-0.4 0.2-0.7 0.6-0.8z"/>
						</g>
					</g>
				</g>
			</g>
			<g id="&lt;Group&gt;">
				<g id="&lt;Group&gt;">
					<g id="&lt;Group&gt;">
						<g id="&lt;Group&gt;">
							<path id="&lt;Path&gt;" class="s6" d="m691 767.5l3.5-20.3h14.3l-4.2 21.5q-7.9 2.5-13.6-1.2z"/>
						</g>
						<path id="&lt;Path&gt;" class="s2" d="m709 768.7q1.7 4.6 0.5 19.9-51.1 4-52.4 1.5c-1.2-2.4-2.5-7.3 4-8.6 6.6-1.3 25.5-16.8 28-17q2.5-0.2 5.7 4c5.1 1 12.5-4.4 14.2 0.2z"/>
						<g id="&lt;Group&gt;">
							<g id="&lt;Group&gt;">
								<g id="&lt;Group&gt;">
									<g id="&lt;Group&gt;">
										<path id="&lt;Path&gt;" class="s4" d="m683.8 778.8c0 0-1.9-3.1-4.1-4.2-2.6-1.3-4.5 0.1-4.6 0.2-0.4 0.3-1 0.2-1.3-0.2-0.3-0.4-0.2-1 0.2-1.3 0.1-0.1 2.9-2.1 6.5-0.4 2.7 1.4 4.8 4.8 4.9 5 0.2 0.4 0.1 1-0.4 1.2q-0.3 0.2-0.7 0.1-0.3-0.1-0.5-0.4z"/>
									</g>
								</g>
							</g>
							<g id="&lt;Group&gt;">
								<g id="&lt;Group&gt;">
									<g id="&lt;Group&gt;">
										<path id="&lt;Path&gt;" class="s4" d="m686.5 776.2c0-0.1-1.9-3.1-4.1-4.2-2.5-1.3-4.5 0.1-4.6 0.2-0.4 0.3-0.9 0.2-1.2-0.2-0.4-0.4-0.3-1 0.1-1.3 0.1-0.1 2.9-2.2 6.5-0.4 2.7 1.3 4.8 4.8 4.9 5 0.2 0.4 0.1 1-0.4 1.2q-0.3 0.2-0.7 0.1-0.3-0.1-0.5-0.4z"/>
									</g>
								</g>
							</g>
							<g id="&lt;Group&gt;">
								<g id="&lt;Group&gt;">
									<path id="&lt;Path&gt;" class="s4" d="m680.1 780.9c0 0-1.9-3.1-4.1-4.2-2.6-1.2-4.5 0.2-4.6 0.2-0.4 0.3-0.9 0.3-1.3-0.2-0.3-0.4-0.2-0.9 0.2-1.2 0.1-0.1 2.9-2.2 6.5-0.4 2.7 1.3 4.8 4.8 4.9 4.9 0.2 0.5 0.1 1-0.4 1.3q-0.3 0.2-0.7 0.1-0.3-0.1-0.5-0.5z"/>
								</g>
							</g>
						</g>
					</g>
				</g>
				<g id="&lt;Group&gt;">
					<g id="&lt;Group&gt;">
						<g id="&lt;Group&gt;">
							<path id="&lt;Path&gt;" class="s5" d="m770.4 713.3q-28 6-40.5-37.2-3.3 16.6-21.3 80.2l-16.2-1c-1.9-67.4 13.8-139.7 37.4-143.4q15.2-2.4 39.6 58.3c8.3 17.4 21.8 38.6 1 43.1z"/>
						</g>
					</g>
				</g>
				<g id="&lt;Group&gt;">
					<path id="&lt;Path&gt;" class="s8" d="m706.6 753.5l-1.9-0.4c0-0.2 4.3-23.9 9.5-47.8 10.6-48.7 14.6-51 15.9-51.7 1.1-0.7 2-0.5 2.6-0.3 2.7 1.2 4 6.9 6 15.5 3.3 13.9 7.8 33 20.1 41l-1.1 1.7c-13-8.5-17.6-28-20.9-42.2-1.7-6.9-3.2-13.3-4.9-14.1-0.1 0-0.3-0.1-0.8 0.1-5.4 3.1-17.6 60.4-24.5 98.2z"/>
				</g>
				<path id="&lt;Path&gt;" class="s8" d="m690.8 750.4l19.8 1.7h0.4l-1.1 6.5-19.5-1.3z"/>
			</g>
			<g id="&lt;Group&gt;">
				<g id="&lt;Group&gt;">
					<path id="&lt;Path&gt;" class="s5" d="m756.8 677.3l50.9-3.7c11.5 10.9 18.5 23.1 21.6 38.7q-37.7 6.8-66.1 1.3c-7.3-12.2-9.6-24.3-6.4-36.3z"/>
					<g id="&lt;Group&gt;">
						<g id="&lt;Group&gt;">
							<path id="&lt;Path&gt;" class="s2" d="m762.5 766.5q1.1 4.7-0.3 19.9-22.4 6.6-35.7 5.5c-4.6-0.4-5.1-12.1 2.3-13.9 4.1-1 15.9-15.4 17.7-15.5q1.8-0.1 8.6 1.4c3.7 1.2 6.3-2.1 7.4 2.6z"/>
							<g id="&lt;Group&gt;">
								<path id="&lt;Path&gt;" class="s6" d="m746.5 764.2l3.2-18.6h14.3l-5 19.3q-7.8 2.5-12.5-0.7z"/>
							</g>
							<g id="&lt;Group&gt;">
								<g id="&lt;Group&gt;">
									<g id="&lt;Group&gt;">
										<g id="&lt;Group&gt;">
											<path id="&lt;Path&gt;" class="s4" d="m744.1 776.9c0 0-2.2-2.9-4.5-3.8-2.7-0.9-4.5 0.6-4.5 0.7-0.4 0.4-1 0.3-1.3 0-0.4-0.4-0.4-1 0-1.3 0.1-0.1 2.7-2.5 6.4-1.1 2.9 1 5.3 4.3 5.4 4.4 0.3 0.4 0.2 1-0.2 1.3q-0.4 0.2-0.7 0.1-0.4 0-0.6-0.3z"/>
										</g>
									</g>
								</g>
								<g id="&lt;Group&gt;">
									<g id="&lt;Group&gt;">
										<path id="&lt;Path&gt;" class="s4" d="m746.5 774c0 0-2.2-2.9-4.5-3.8-2.7-0.9-4.4 0.7-4.5 0.7-0.4 0.4-1 0.3-1.3 0-0.4-0.4-0.3-1 0-1.3 0.1-0.1 2.7-2.5 6.4-1.1 2.9 1 5.3 4.3 5.4 4.4 0.3 0.4 0.2 1-0.2 1.3q-0.3 0.2-0.7 0.2-0.4-0.1-0.6-0.4z"/>
									</g>
								</g>
								<g id="&lt;Group&gt;">
									<g id="&lt;Group&gt;">
										<path id="&lt;Path&gt;" class="s4" d="m740.6 779.4c0 0-2.1-2.9-4.4-3.7-2.7-1-4.5 0.6-4.6 0.6-0.3 0.4-0.9 0.4-1.3 0-0.3-0.4-0.3-1 0.1-1.3 0.1-0.1 2.6-2.4 6.4-1.1 2.8 1.1 5.2 4.3 5.3 4.4 0.3 0.4 0.2 1-0.2 1.3q-0.3 0.2-0.7 0.2-0.3-0.1-0.6-0.4z"/>
									</g>
								</g>
							</g>
						</g>
					</g>
					<path id="&lt;Path&gt;" class="s5" d="m825.9 713.3c-3.6 0.8-7 0.7-10.1 0.1q-1.5-0.4-3-0.9-18.9-6.7-27.5-36.4-3.2 16.6-22 80.1l-2.9-0.4-2-0.2-11.1-1.5c-2.1-65.3 14.4-138.5 37.9-142.2q15.2-2.4 39.7 58.3c8.2 17.4 21.7 38.6 1 43.1z"/>
					<g id="&lt;Group&gt;">
						<path id="&lt;Path&gt;" class="s8" d="m815.8 713.4q-1.5-0.4-3-0.9c-6.9-11.1-10.5-26.7-13.4-39.3-2.3-10-4.5-19.4-7.4-21.1-0.4-0.2-0.9-0.2-1.4-0.1-2.4 0.8-8.1 8.9-19.2 54.1-5.3 21.5-9.6 43-11 49.7-0.3 1.4-0.4 2.2-0.4 2.2l-2-0.4c0 0 0.1-0.7 0.4-2 1.3-6.7 5.7-28.3 11-50 13-53 18.7-54.9 20.6-55.5q1.6-0.5 3 0.3c3.7 2 5.6 10.6 8.4 22.3 3 13.2 6.8 29.8 14.4 40.7z"/>
					</g>
					<path id="&lt;Path&gt;" class="s8" d="m746 749.5l19.6 3.6h0.3l-1.7 6.5-19.2-3.3z"/>
				</g>
			</g>
			<path id="&lt;Path&gt;" class="s1" d="m830.4 549.9l25.3 36.7q-11.2 21.2-22.2 23.4-11.5-20-12.8-30.3c-1.4-10.2 5.8-28.9 9.7-29.8z"/>
			<g id="&lt;Group&gt;">
				<g id="&lt;Group&gt;">
					<path id="&lt;Path&gt;" class="s3" d="m782.4 467.5c14.2 0 22.6 10.8 22.6 25 0 14.2-9.9 24.8-24.1 24.8-14.2 0-23-9.8-23-24.1 0-14.2 7.4-25.7 24.5-25.7z"/>
				</g>
				<g id="&lt;Group&gt;">
					<path id="&lt;Path&gt;" class="s3" d="m758.7 485.4q-10.5-10.5-6.6-15.4c4-5 9.1-0.2 10.7-5 1.6-4.7 2.2-10.7 8.6-8.3 6.5 2.5 6.8 6.5 12.9 2.9 6.2-3.6 4.8 2.5 10.2 5.2 5.4 2.7 9.2 2.3 8.3 7.4-0.9 5.2 5.2 6.3 2.7 12q-2.5 5.7-5.4 2.8z"/>
				</g>
				<g id="&lt;Group&gt;">
					<g id="&lt;Group&gt;">
						<path id="&lt;Path&gt;" class="s7" d="m762.6 512.5c-7.2 3.2-11.3-9.7-8.4-14q3-4.4 6.9 0.9z"/>
					</g>
					<g id="&lt;Group&gt;">
						<g id="&lt;Group&gt;">
							<path id="&lt;Path&gt;" class="s9" d="m761.1 508.6c-0.3 0-0.6-0.2-0.6-0.5-1.1-4-5.3-5.6-5.3-5.6-0.3-0.1-0.5-0.4-0.4-0.8 0.2-0.3 0.5-0.4 0.8-0.3 0.2 0.1 4.8 1.8 6 6.4 0.1 0.3-0.1 0.7-0.4 0.7q-0.1 0.1-0.1 0.1z"/>
						</g>
					</g>
					<g id="&lt;Group&gt;">
						<g id="&lt;Group&gt;">
							<g id="&lt;Group&gt;">
								<path id="&lt;Path&gt;" class="s9" d="m756.9 506.6q-0.2 0-0.3-0.1c-0.3-0.2-0.4-0.6-0.2-0.9 0 0 0.7-1.1 2.3-1.8 0.3-0.1 0.6 0 0.8 0.3 0.1 0.3 0 0.7-0.3 0.8-1.2 0.5-1.8 1.4-1.8 1.4-0.1 0.2-0.3 0.3-0.5 0.3z"/>
							</g>
						</g>
					</g>
				</g>
				<g id="&lt;Group&gt;">
					<g id="&lt;Group&gt;">
						<path id="&lt;Path&gt;" class="s7" d="m801.8 499.4q4-5.3 6.9-0.9c2.9 4.3-1.2 17.2-8.4 14z"/>
					</g>
					<g id="&lt;Group&gt;">
						<g id="&lt;Group&gt;">
							<path id="&lt;Path&gt;" class="s9" d="m801.7 508.5c-0.3 0-0.5-0.4-0.4-0.7 1.3-4.6 5.8-6.3 6-6.4 0.3-0.1 0.7 0 0.8 0.3 0.1 0.4-0.1 0.7-0.4 0.8 0 0-4.1 1.6-5.2 5.6-0.1 0.3-0.4 0.5-0.6 0.5q-0.1 0-0.2-0.1z"/>
						</g>
					</g>
					<g id="&lt;Group&gt;">
						<g id="&lt;Group&gt;">
							<g id="&lt;Group&gt;">
								<path id="&lt;Path&gt;" class="s9" d="m805.5 506.3c0 0-0.6-0.9-1.7-1.4-0.4-0.1-0.5-0.5-0.4-0.8 0.2-0.3 0.5-0.4 0.9-0.3 1.5 0.7 2.2 1.8 2.2 1.8 0.2 0.3 0.1 0.7-0.2 0.9q-0.1 0.1-0.3 0.1c-0.2 0-0.4-0.1-0.5-0.3z"/>
							</g>
						</g>
					</g>
				</g>
				<g id="&lt;Group&gt;">
					<path id="&lt;Path&gt;" class="s6" d="m791.2 523.5v12.7q-3.8 6.6-9 7-5.1 0.5-9.7-5.6v-13.2z"/>
				</g>
				<g id="&lt;Group&gt;">
					<path id="&lt;Path&gt;" class="s7" d="m791.2 523.5v5.6c-3.5 3.9-9.6 4.8-18.7 3.5v-8.2z"/>
				</g>
				<g id="&lt;Group&gt;">
					<path id="&lt;Path&gt;" class="s6" d="m758.8 489.9c0.1-4.7 2.6-9.1 6.7-11.4 11.2-6.3 22.9-3.9 30.6-1 5.4 2.1 8.8 7.4 8.6 13.1-0.2 2.7-0.4 5.8-0.7 8.9-0.2 2.5-0.6 5-1 7.3q-0.3 1.8-0.8 3.4c-2.7 9.4-9.4 25.6-28.3 18.9-8.3-3-12.2-12.3-13.9-21.7-0.5-2.9-0.8-5.7-1-8.4-0.2-3.4-0.3-6.5-0.2-9.1z"/>
				</g>
				<g id="&lt;Group&gt;">
					<g id="&lt;Group&gt;">
						<path id="&lt;Compound Path&gt;" fill-rule="evenodd" class="s3" d="m761.3 499.5c0.7 1.1 4.2 12 5.2 13.6q2.2-4.9 13-1.4 1 0.4 2 0.4 1.1 0 2.1-0.4 10.9-3.4 13 1.8c1-1.6 4.1-12.3 4.7-14h2.7c-0.2 2.5-0.6 5-1 7.3q-0.3 1.8-0.8 3.4c-2.7 9.4-9.4 25.6-28.3 18.9-8.3-3-12.2-12.3-13.9-21.7-0.5-2.9-0.8-5.7-1-8.4zm10.1 19.9q0 0 0 0c0.9 0.8 1.7 1.5 2.6 1.9 4.7 2.6 5.3 2.2 7.1 2.3 2 0.1 4.6-0.5 7.3-2 0.8-0.4 2.1-1.4 3.4-2.6q2-6.6-10.3-5c-12.4-2.1-10.3 4.1-10.1 5.4z"/>
					</g>
				</g>
				<g id="&lt;Group&gt;">
					<ellipse id="&lt;Path&gt;" class="s3" cx="771.8" cy="501" rx="1.6" ry="2.5"/>
				</g>
				<g id="&lt;Group&gt;">
					<ellipse id="&lt;Path&gt;" class="s3" cx="790.3" cy="501" rx="1.6" ry="2.5"/>
				</g>
				<g id="&lt;Group&gt;">
					<path id="&lt;Path&gt;" class="s3" d="m765 495q5.2-3.9 10.2-3.2l0.2 2.6q-6.7 1.2-9.6 3.5c-0.6-0.9-0.9-1.8-0.8-2.9z"/>
				</g>
				<g id="&lt;Group&gt;">
					<path id="&lt;Path&gt;" class="s3" d="m796.4 497.9q-2.9-2.3-9.6-3.5l0.2-2.6q5-0.7 10.2 3.2c0.1 1.1-0.2 2-0.8 2.9z"/>
				</g>
				<g id="&lt;Group&gt;">
					<g id="&lt;Group&gt;">
						<path id="&lt;Path&gt;" class="s7" d="m780.3 510.3c-0.3-0.2-0.7-0.6-0.8-1.5-0.3-2.2 0.3-9.2 0.3-9.5 0.1-0.4 0.4-0.6 0.7-0.6 0.3 0.1 0.6 0.3 0.5 0.7 0 0.1-0.5 7.2-0.3 9.3 0 0.4 0.2 0.5 0.3 0.6 0.5 0.3 1.9-0.1 2.4-0.3 0.3-0.1 0.7 0 0.8 0.4 0.1 0.3 0 0.6-0.3 0.7-0.2 0.1-1.2 0.5-2.2 0.5-0.5 0-1-0.1-1.4-0.3z"/>
					</g>
				</g>
				<g id="&lt;Group&gt;">
					<path id="&lt;Path&gt;" class="s4" d="m781.3 515.1c4.6 0 4.9 6.8 0.3 7.1q-0.3 0-0.5 0-0.3 0-0.5 0c-4.6-0.3-4.3-7.1 0.2-7.1z"/>
				</g>
				<g id="&lt;Group&gt;">
					<path id="&lt;Path&gt;" class="s3" d="m804 499.5h-2.7c0.3-2.8 0.7-7.7-1.6-8.4-7.1-2.2 2.2-7.2-1.1-9.8-3.2-2.5-11.3-1.4-16.9-1.6-5.6-0.2-14.7-0.1-16.9 0.4-2.2 0.5-1 4.2-0.2 7 0.8 2.9-2.7 6-3.3 8.9-0.1 0.9-0.1 2.1 0 3.5h-2.3c-0.2-3.6-0.3-6.9-0.2-9.6 0.1-4.7 2.6-9.1 6.7-11.4 11.2-6.3 22.9-3.9 30.6-1 5.4 2.1 8.8 7.4 8.6 13.1-0.2 2.7-0.4 5.8-0.7 8.9z"/>
				</g>
			</g>
			<g id="&lt;Group&gt;">
				<path id="&lt;Path&gt;" class="s2" d="m929.6 712.2c-3.4 13.3-13 23.4-27.6 29.2-3.9 1.6-7.6 2.6-10.8 3.3q0.1-0.2 0.3-0.5c2.3-3.1 4.2-6.5 5.7-10.1 9.7-3.5 20.7-10.5 24.2-24 3.3-13.1-2.1-32.6-13.8-49.8-9.2-13.6-30.3-37.1-67.1-41.6-32.2-4-53 0.9-71.5 5.2-15.6 3.6-30.4 7.1-48.5 3.9-13.3-2.3-23.5-5.7-32.5-8.6-16.6-5.5-27.5-9.1-44.9-2-29.3 12-42.4 61.7-42.5 62.2l-8.2-2.1c0.6-2.2 14.2-54.4 47.5-68 20.3-8.3 33.7-3.9 50.8 1.8 8.7 2.9 18.6 6.1 31.2 8.4 16.4 2.8 29.8-0.3 45.2-3.9 19.1-4.5 40.8-9.5 74.4-5.4 15.7 2 30.4 7.4 43.6 16.1 11.4 7.5 21.7 17.7 29.6 29.2 13.2 19.4 18.9 41.1 14.9 56.7z"/>
				<g id="&lt;Group&gt;">
					<path id="&lt;Path&gt;" class="s5" d="m519.9 758l19.1-60.2c8.1-25.7 35.5-39.9 61.2-31.8 25.7 8.1 39.9 35.5 31.8 61.2l-19.1 60.2c-38.6-12.2-54.2-17.1-93-29.4z"/>
				</g>
			</g>
			<g id="&lt;Group&gt;">
				<g id="&lt;Group&gt;">
					<g id="&lt;Group&gt;">
						<path id="&lt;Path&gt;" class="s6" d="m669.6 615.2q1.6-3.8 4.9-8.9c1.7-2.6 5.6-3.8 6-0.7 0.3 2.4-1.4 4.3-1.8 6.7q0.9-1.4 2.8-4.9c1.7-3.2 4.1-3 4.5-0.6 0.3 2.3-0.4 2.2-0.9 4q-0.8 2.3-1.9 5.2 0.9-3.4 3.7-7.2c1.3-1.8 2.6-3.7 4.5-1 1 1.4-0.3 5.1-1.3 9.1q2-5.4 4.7-6.7c2.1-1.1 3.2-0.2 2.4 2.8-1.1 3.8-1.8 4.8-2.6 7-0.8 2.3-3.7 5.5-6 4.7-2.4-0.7-2.9-2.3-4.4-2.4-1.6-0.2-4.2 0-5.3-1-1-1-2.2-1.2-4-1.3-1.8 0-5.4-2.4-5.3-4.8z"/>
					</g>
				</g>
			</g>
			<g id="&lt;Group&gt;">
				<g id="&lt;Group&gt;">
					<path id="&lt;Path&gt;" class="s6" d="m834.6 618.9q1-4 3.5-9.5c1.3-2.9 4.4-4.9 5.3-1.9 0.7 2.4-0.2 4.7-0.2 7.1q0.6-1.5 2-5.3c1.2-3.4 3.6-3.5 4.3-1.2 0.7 2.2 0 2.2-0.3 4q-0.4 2.4-1 5.4 0.3-3.4 2.5-7.6c1-1.9 2-4.1 4.3-1.7 1.2 1.2 0.5 5.1 0.1 9.2q0.5-4.9 2.9-6.7c1.9-1.4 3.9-1.3 3.5 1.7-0.4 3.9-0.9 5.1-1.4 7.4-0.4 2.4-2.8 6-5.3 5.6-2.4-0.4-3.1-1.9-4.7-1.8-1.6 0.2-4.1 0.7-5.3-0.1-1.2-0.8-2.4-0.9-4.2-0.6-1.8 0.2-5.8-1.6-6-4z"/>
				</g>
			</g>
			<g id="&lt;Group&gt;">
				<g id="&lt;Group&gt;">
					<g id="&lt;Group&gt;">
						<path id="&lt;Path&gt;" class="s2" d="m510.5 816.3c0 1.6-0.7 3.1-1.8 4.2-1 1.1-2.5 1.8-4.2 1.8h-23.9v-12h23.9c3.3 0 6 2.7 6 6z"/>
					</g>
					<g id="&lt;Group&gt;">
						<path id="&lt;Path&gt;" class="s2" d="m510.5 859c0 1.6-0.7 3.1-1.8 4.2-1 1.1-2.5 1.8-4.2 1.8h-23.9v-12h23.9c3.3 0 6 2.6 6 6z"/>
					</g>
					<g id="&lt;Group&gt;">
						<g id="&lt;Group&gt;">
							<path id="&lt;Path&gt;" class="s3" d="m491.5 810.3v12h-10.9v-12z"/>
						</g>
					</g>
					<g id="&lt;Group&gt;">
						<g id="&lt;Group&gt;">
							<path id="&lt;Path&gt;" class="s3" d="m491.5 853v12h-10.9v-12z"/>
						</g>
					</g>
				</g>
				<g id="&lt;Group&gt;">
					<path id="&lt;Path&gt;" class="s2" d="m385.8 830.6l-0.4 9.5c-99-3.5-175.9-10.7-228.3-21.5-45-9.2-73.2-21.1-86.1-36.3-6.7-7.8-9.5-16.6-8.3-26.3 2-16.4 16.5-28.4 43.2-36q0.6 4.8 2.1 9.3c-18 5.2-34.1 13.7-35.9 27.8-0.8 7.1 1.1 13.3 6.1 19.1 11.4 13.3 38.5 24.4 80.8 33.1 51.9 10.7 128.2 17.8 226.8 21.3z"/>
				</g>
				<g id="&lt;Group&gt;">
					<path id="&lt;Path&gt;" class="s5" d="m480.6 886.4h-63.2c-26.9 0-48.8-21.9-48.8-48.8 0-26.9 21.9-48.7 48.8-48.7h63.2c0 40.5 0 56.8 0 97.5z"/>
				</g>
			</g>
		</g>
		<g id="&lt;Group&gt;">
			<g id="&lt;Group&gt;">
				<g id="&lt;Group&gt;">
					<g id="&lt;Group&gt;">
						<path id="&lt;Path&gt;" class="s5" d="m914.3 455.9v32.3c0 4.3-3.5 7.8-7.8 7.8h-58.7l-17.7 6.3c-1.8 0.7-3.6-1.1-2.9-2.9l6.7-17.3v-26.2c0-4.3 3.5-7.7 7.8-7.7h64.8c4.3 0 7.8 3.4 7.8 7.7z"/>
					</g>
				</g>
				<g id="&lt;Group&gt;" style="mix-blend-mode: screen">
					<g id="&lt;Group&gt;">
						<circle id="&lt;Path&gt;" class="s5" cx="857.6" cy="473" r="5.6"/>
						<circle id="&lt;Path&gt;" class="s5" cx="875.4" cy="473" r="5.6"/>
						<circle id="&lt;Path&gt;" class="s5" cx="893.1" cy="473" r="5.6"/>
					</g>
				</g>
			</g>
			<g id="&lt;Group&gt;">
				<g id="&lt;Group&gt;">
					<path id="&lt;Compound Path&gt;" fill-rule="evenodd" class="s5" d="m617.7 259.1c0-7.3 6-13.2 13.3-13.2 7.3 0 13.2 5.9 13.2 13.2 0 7.3-5.9 13.2-13.2 13.2-7.3 0-13.3-5.9-13.3-13.2zm4.2 0c0 5 4.1 9.1 9.1 9.1 5 0 9-4.1 9-9.1 0-5-4-9.1-9-9.1-5 0-9.1 4.1-9.1 9.1z"/>
				</g>
				<g id="&lt;Group&gt;">
					<path id="&lt;Compound Path&gt;" fill-rule="evenodd" class="s5" d="m573.6 202.5c0-7.3 5.9-13.2 13.2-13.2 7.3 0 13.2 5.9 13.2 13.2 0 7.3-5.9 13.2-13.2 13.2-7.3 0-13.2-5.9-13.2-13.2zm4.1 0c0 5 4.1 9 9.1 9 5 0 9-4 9-9 0-5-4-9.1-9-9.1-5 0-9.1 4.1-9.1 9.1z"/>
				</g>
				<g id="&lt;Group&gt;">
					<g id="&lt;Group&gt;">
						<g id="&lt;Group&gt;">
							<path id="&lt;Path&gt;" class="s1" d="m575.6 263.7v-9.2c0-1.1 1-2 2.1-2 1.1 0 2.1 0.9 2.1 2v9.2c0 1.1-1 2.1-2.1 2.1-1.1 0-2.1-1-2.1-2.1z"/>
						</g>
						<g id="&lt;Group&gt;">
							<path id="&lt;Path&gt;" class="s1" d="m575.6 279.7v-9.2c0-1.1 1-2 2.1-2 1.1 0 2.1 0.9 2.1 2v9.2c0 1.1-1 2.1-2.1 2.1-1.1 0-2.1-1-2.1-2.1z"/>
						</g>
					</g>
					<g id="&lt;Group&gt;">
						<g id="&lt;Group&gt;">
							<path id="&lt;Path&gt;" class="s1" d="m562.8 267.1c0-1.1 0.9-2.1 2.1-2.1h8.2c1.1 0 2.1 1 2.1 2.1 0 1.2-1 2.1-2.1 2.1h-8.2c-1.2 0-2.1-0.9-2.1-2.1z"/>
						</g>
						<g id="&lt;Group&gt;">
							<path id="&lt;Path&gt;" class="s1" d="m580.2 267.1c0-1.1 1-2.1 2.1-2.1h8.2c1.2 0 2.1 1 2.1 2.1 0 1.2-0.9 2.1-2.1 2.1h-8.2c-1.1 0-2.1-0.9-2.1-2.1z"/>
						</g>
					</g>
				</g>
				<g id="&lt;Group&gt;">
					<g id="&lt;Group&gt;">
						<g id="&lt;Group&gt;">
							<g id="&lt;Group&gt;">
								<path id="&lt;Path&gt;" class="s2" d="m631.4 202.7v-9.1c0-1.1 1-2.1 2.1-2.1 1.2 0 2.1 1 2.1 2.1v9.1c0 1.2-0.9 2.1-2.1 2.1-1.1 0-2.1-0.9-2.1-2.1z"/>
							</g>
							<g id="&lt;Group&gt;">
								<path id="&lt;Path&gt;" class="s2" d="m631.4 218.7v-9.1c0-1.1 1-2.1 2.1-2.1 1.2 0 2.1 1 2.1 2.1v9.1c0 1.2-0.9 2.1-2.1 2.1-1.1 0-2.1-0.9-2.1-2.1z"/>
							</g>
						</g>
						<g id="&lt;Group&gt;">
							<g id="&lt;Group&gt;">
								<path id="&lt;Path&gt;" class="s2" d="m618.6 206.2c0-1.2 0.9-2.1 2.1-2.1h8.2c1.1 0 2.1 0.9 2.1 2.1 0 1.1-1 2-2.1 2h-8.2c-1.2 0-2.1-0.9-2.1-2z"/>
							</g>
							<g id="&lt;Group&gt;">
								<path id="&lt;Path&gt;" class="s2" d="m636.1 206.2c0-1.2 0.9-2.1 2-2.1h8.3c1.1 0 2 0.9 2 2.1 0 1.1-0.9 2-2 2h-8.3c-1.1 0-2-0.9-2-2z"/>
							</g>
						</g>
					</g>
				</g>
			</g>
			<g id="&lt;Group&gt;">
				<g id="&lt;Group&gt;">
					<g id="&lt;Group&gt;">
						<path id="&lt;Compound Path&gt;" fill-rule="evenodd" class="s5" d="m235.6 168.5c0-7.3 5.9-13.2 13.2-13.2 7.3 0 13.2 5.9 13.2 13.2 0 7.3-5.9 13.2-13.2 13.2-7.3 0-13.2-5.9-13.2-13.2zm4.1 0c0 5 4.1 9.1 9.1 9.1 5 0 9.1-4.1 9.1-9.1 0-5-4.1-9.1-9.1-9.1-5 0-9.1 4.1-9.1 9.1z"/>
					</g>
				</g>
				<g id="&lt;Group&gt;">
					<path id="&lt;Compound Path&gt;" fill-rule="evenodd" class="s1" d="m184.7 193.4c0-7.3 6-13.2 13.3-13.2 7.2 0 13.2 5.9 13.2 13.2 0 7.3-6 13.2-13.2 13.2-7.3 0-13.3-5.9-13.3-13.2zm4.2 0c0 5 4.1 9.1 9.1 9.1 5 0 9-4.1 9-9.1 0-5-4-9.1-9-9.1-5 0-9.1 4.1-9.1 9.1z"/>
				</g>
				<g id="&lt;Group&gt;">
					<g id="&lt;Group&gt;">
						<g id="&lt;Group&gt;">
							<path id="&lt;Path&gt;" class="s5" d="m175.1 226.9v-9.1c0-1.2 0.9-2.1 2-2.1 1.2 0 2.1 0.9 2.1 2.1v9.1c0 1.2-0.9 2.1-2.1 2.1-1.1 0-2-0.9-2-2.1z"/>
						</g>
						<g id="&lt;Group&gt;">
							<path id="&lt;Path&gt;" class="s5" d="m175.1 242.9v-9.1c0-1.2 0.9-2.1 2-2.1 1.2 0 2.1 0.9 2.1 2.1v9.1c0 1.2-0.9 2.1-2.1 2.1-1.1 0-2-0.9-2-2.1z"/>
						</g>
					</g>
					<g id="&lt;Group&gt;">
						<g id="&lt;Group&gt;">
							<path id="&lt;Path&gt;" class="s5" d="m162.2 230.3c0-1.1 0.9-2 2.1-2h8.2c1.2 0 2.1 0.9 2.1 2 0 1.2-0.9 2.1-2.1 2.1h-8.2c-1.2 0-2.1-0.9-2.1-2.1z"/>
						</g>
						<g id="&lt;Group&gt;">
							<path id="&lt;Path&gt;" class="s5" d="m179.7 230.3c0-1.1 0.9-2 2-2h8.3c1.1 0 2 0.9 2 2 0 1.2-0.9 2.1-2 2.1h-8.3c-1.1 0-2-0.9-2-2.1z"/>
						</g>
					</g>
				</g>
				<g id="&lt;Group&gt;">
					<g id="&lt;Group&gt;">
						<g id="&lt;Group&gt;">
							<g id="&lt;Group&gt;">
								<path id="&lt;Path&gt;" class="s2" d="m212.2 141.4v-9.2c0-1.1 1-2.1 2.1-2.1 1.2 0 2.1 1 2.1 2.1v9.2c0 1.1-0.9 2-2.1 2-1.1 0-2.1-0.9-2.1-2z"/>
							</g>
							<g id="&lt;Group&gt;">
								<path id="&lt;Path&gt;" class="s2" d="m212.2 157.4v-9.2c0-1.1 1-2 2.1-2 1.2 0 2.1 0.9 2.1 2v9.2c0 1.1-0.9 2-2.1 2-1.1 0-2.1-0.9-2.1-2z"/>
							</g>
						</g>
						<g id="&lt;Group&gt;">
							<g id="&lt;Group&gt;">
								<path id="&lt;Path&gt;" class="s2" d="m199.4 144.8c0-1.1 0.9-2.1 2.1-2.1h8.2c1.1 0 2.1 1 2.1 2.1 0 1.1-1 2.1-2.1 2.1h-8.2c-1.2 0-2.1-1-2.1-2.1z"/>
							</g>
							<g id="&lt;Group&gt;">
								<path id="&lt;Path&gt;" class="s2" d="m216.9 144.8c0-1.1 0.9-2.1 2-2.1h8.2c1.2 0 2.1 1 2.1 2.1 0 1.1-0.9 2.1-2.1 2.1h-8.2c-1.1 0-2-1-2-2.1z"/>
							</g>
						</g>
					</g>
				</g>
			</g>
		</g>
	</g>
</svg>